<svg width="390" height="68" viewBox="0 0 390 68" fill="none" xmlns="http://www.w3.org/2000/svg">
<path fill-rule="evenodd" clip-rule="evenodd" d="M7.5 0C11.6167 0 14.9572 3.31678 14.998 7.42383L38.0293 20.8594C38.3544 17.0172 41.5737 14 45.5 14C49.6138 14 52.9515 17.3121 52.9971 21.415L75.0283 33.8672C75.3497 30.0213 78.5711 27 82.5 27C86.6421 27 90 30.3579 90 34.5C90 38.6421 86.6421 42 82.5 42C78.516 42 75.2586 38.8935 75.0156 34.9707L75 35L53 48.127L52.9746 48.084C52.6765 51.9531 49.4455 55 45.5 55C41.516 55 38.2586 51.8935 38.0156 47.9707L38 48L15 61L14.9834 60.9707C14.7404 64.8935 11.484 68 7.5 68C3.35786 68 0 64.6421 0 60.5C0 56.3579 3.35786 53 7.5 53C11.4289 53 14.6493 56.0213 14.9707 59.8672L36.9824 47.4248L15 35L14.9834 34.9707C14.7404 38.8935 11.484 42 7.5 42C3.35786 42 0 38.6421 0 34.5C0 30.3579 3.35786 27 7.5 27C11.4289 27 14.6493 30.0213 14.9707 33.8672L36.999 21.416L14.9268 8.54004C14.4203 12.1898 11.2892 15 7.5 15C3.35786 15 0 11.6421 0 7.5C0 3.35786 3.35786 0 7.5 0ZM38 22L16.0156 34.4258L38.0283 46.8672C38.3497 43.0213 41.5711 40 45.5 40C49.4655 40 52.7097 43.0777 52.9795 46.9746L73.9971 34.4326L52.9287 22.5244C52.4291 26.1818 49.2945 29 45.5 29C41.5163 29 38.2591 25.894 38.0156 21.9717L38 22Z" fill="white"/>
<path fill-rule="evenodd" clip-rule="evenodd" d="M181.049 24.2021C183.407 24.2021 185.534 24.589 187.429 25.3623C189.362 26.097 191.006 27.1598 192.359 28.5518C193.713 29.9051 194.757 31.568 195.491 33.54C196.226 35.4734 196.593 37.6388 196.593 40.0361C196.593 42.4334 196.226 44.5989 195.491 46.5322C194.757 48.4653 193.712 50.1276 192.359 51.5195C191.006 52.8729 189.362 53.9177 187.429 54.6523C185.534 55.3869 183.407 55.7539 181.049 55.7539C178.69 55.7539 176.564 55.387 174.669 54.6523C172.774 53.9177 171.15 52.8729 169.797 51.5195C168.444 50.1276 167.4 48.4653 166.665 46.5322C165.93 44.5989 165.563 42.4334 165.563 40.0361C165.563 37.6388 165.93 35.4734 166.665 33.54C167.4 31.568 168.444 29.9051 169.797 28.5518C171.15 27.1598 172.774 26.097 174.669 25.3623C176.564 24.589 178.69 24.2022 181.049 24.2021ZM181.049 30.4082C179.657 30.4082 178.497 30.6984 177.569 31.2783C176.641 31.8196 175.888 32.5347 175.308 33.4238C174.766 34.3132 174.379 35.3381 174.147 36.498C173.915 37.658 173.799 38.8375 173.799 40.0361C173.799 41.2348 173.915 42.4143 174.147 43.5742C174.379 44.6954 174.766 45.7205 175.308 46.6484C175.888 47.5375 176.642 48.2527 177.569 48.7939C178.497 49.3352 179.657 49.6064 181.049 49.6064C182.441 49.6064 183.601 49.3353 184.529 48.7939C185.496 48.2527 186.25 47.5376 186.791 46.6484C187.371 45.7205 187.777 44.6954 188.009 43.5742C188.241 42.4143 188.357 41.2348 188.357 40.0361C188.357 38.8375 188.241 37.658 188.009 36.498C187.777 35.3381 187.371 34.3132 186.791 33.4238C186.25 32.5347 185.496 31.8196 184.529 31.2783C183.601 30.6983 182.441 30.4082 181.049 30.4082Z" fill="white"/>
<path fill-rule="evenodd" clip-rule="evenodd" d="M249.423 24.2021C251.975 24.2021 254.198 24.7047 256.093 25.71C257.987 26.6766 259.535 27.9916 260.733 29.6543C261.971 31.3169 262.86 33.2114 263.401 35.3379C263.943 37.4645 264.136 39.6879 263.981 42.0078H242.347C242.463 44.6757 243.14 46.6089 244.377 47.8076C245.614 49.0063 247.393 49.6064 249.713 49.6064C251.376 49.6064 252.806 49.1997 254.005 48.3877C255.204 47.537 255.938 46.6477 256.209 45.7197H263.459C262.299 49.3156 260.52 51.8869 258.123 53.4336C255.726 54.9803 252.826 55.7539 249.423 55.7539C247.064 55.7539 244.938 55.387 243.043 54.6523C241.148 53.879 239.543 52.7963 238.229 51.4043C236.914 50.0123 235.89 48.3493 235.155 46.416C234.459 44.4827 234.111 42.3561 234.111 40.0361C234.111 37.7936 234.478 35.7057 235.213 33.7725C235.948 31.8392 236.992 30.1761 238.345 28.7842C239.698 27.3535 241.303 26.2319 243.159 25.4199C245.054 24.608 247.142 24.2022 249.423 24.2021ZM249.191 30.4082C247.877 30.4082 246.774 30.6395 245.885 31.1035C245.034 31.5288 244.338 32.0703 243.797 32.7275C243.294 33.3849 242.927 34.0817 242.695 34.8164C242.502 35.551 242.385 36.2082 242.347 36.7881H255.745C255.358 34.7002 254.662 33.1149 253.657 32.0322C252.691 30.9496 251.202 30.4083 249.191 30.4082Z" fill="white"/>
<path d="M283.54 13.5879C285.164 13.5879 286.788 13.8392 288.412 14.3418C290.036 14.8058 291.486 15.5217 292.762 16.4883C294.076 17.4549 295.14 18.6344 295.952 20.0264C296.764 21.4182 297.17 23.0228 297.17 24.8398C297.17 26.8117 296.686 28.5516 295.72 30.0596C294.792 31.5676 293.38 32.5925 291.485 33.1338V33.25C293.728 33.7527 295.488 34.8354 296.764 36.498C298.04 38.1606 298.678 40.1518 298.678 42.4717C298.678 44.5983 298.252 46.4936 297.401 48.1562C296.589 49.8188 295.488 51.2108 294.096 52.332C292.704 53.4534 291.099 54.3038 289.281 54.8838C287.464 55.4637 285.57 55.7539 283.598 55.7539C281.316 55.7539 279.229 55.4249 277.334 54.7676C275.478 54.1103 273.893 53.1631 272.578 51.9258C271.264 50.6498 270.239 49.1034 269.504 47.2861C268.808 45.4689 268.479 43.3809 268.518 41.0225H276.348C276.386 42.105 276.561 43.1491 276.87 44.1543C277.179 45.1208 277.624 45.9715 278.204 46.7061C278.784 47.4019 279.499 47.9624 280.35 48.3877C281.239 48.813 282.283 49.0263 283.481 49.0264C285.337 49.0264 286.904 48.4651 288.18 47.3438C289.456 46.1839 290.094 44.6182 290.094 42.6465C290.094 41.1001 289.784 39.9204 289.166 39.1084C288.586 38.2964 287.831 37.7162 286.903 37.3682C285.975 36.9816 284.951 36.7692 283.83 36.7305C282.747 36.6531 281.703 36.6143 280.697 36.6143V30.8145C281.587 30.8918 282.535 30.8918 283.54 30.8145C284.545 30.7371 285.473 30.5237 286.323 30.1758C287.213 29.7891 287.928 29.2478 288.47 28.5518C289.05 27.8558 289.34 26.9275 289.34 25.7676C289.34 24.0278 288.76 22.6936 287.6 21.7656C286.44 20.8377 285.106 20.374 283.598 20.374C281.51 20.374 279.924 21.07 278.842 22.4619C277.798 23.8152 277.295 25.536 277.334 27.624H269.504C269.581 25.5362 269.948 23.6416 270.605 21.9404C271.301 20.2004 272.249 18.711 273.447 17.4736C274.685 16.2363 276.154 15.2892 277.855 14.6318C279.557 13.9358 281.452 13.5879 283.54 13.5879Z" fill="white"/>
<path d="M135.506 42.0664H135.622L144.786 13.5879H157.604V55H149.078V25.6523H148.962L138.812 55H131.794L121.644 25.9424H121.528V55H113.002V13.5879H125.82L135.506 42.0664Z" fill="white"/>
<path d="M215.811 45.4883H215.926L222.248 25.0137H230.426L220.276 55H211.112L200.846 25.0137H209.488L215.811 45.4883Z" fill="white"/>
<path d="M331.428 21.4756C329.301 23.3316 327.407 25.6137 325.744 28.3203C324.12 31.0269 322.747 33.9073 321.626 36.9619C320.543 40.0166 319.693 43.1102 319.074 46.2422C318.494 49.3741 318.185 52.2934 318.146 55H309.33C309.794 48.9294 311.206 43.091 313.564 37.4844C315.962 31.8777 319.093 26.7343 322.96 22.0557H303.704V14.4004H331.428V21.4756Z" fill="white"/>
<path fill-rule="evenodd" clip-rule="evenodd" d="M375.547 55H366.093L362.961 45.7783H347.475L344.227 55H335.062L350.723 13.5879H360.061L375.547 55ZM349.853 38.9922H360.583L355.362 23.7959H355.247L349.853 38.9922Z" fill="white"/>
<path d="M389.964 55H380.857V13.5879H389.964V55Z" fill="white"/>
</svg>
